# xmcd CD database file
#
# Track frame offsets:
#	150
#	26767
#	55999
#	85388
#	117728
#	140816
#	163236
#	186160
#	213845
#
# Disc length: 3195 seconds
#
# Revision: 0
# Processed by: cddbd v1.5.2PL0 Copyright (c) Steve Scherf et al.
# Submitted via: CDex 1.51
#
DISCID=8a0c7909
DTITLE=Karunesh - Colors Of The East
DYEAR=2012
DGENRE=New Age
TTITLE0=Dervish Dream
TTITLE1=Vishnu
TTITLE2=The Beloved
TTITLE3=Caravanserai
TTITLE4=Bollywood Deligth
TTITLE5=Traverse
TTITLE6=Back Again (remix)
TTITLE7=Devotion
TTITLE8=Goa Sunset
EXTD=YEAR: 2012
EXTT0=
EXTT1=
EXTT2=
EXTT3=
EXTT4=
EXTT5=
EXTT6=
EXTT7=
EXTT8=
PLAYORDER=
